# xmcd
#
# Track frame offsets:
#	150
#	23032
#	40828
#	54276
#	69491
#	84642
#	99322
#	117610
#	129196
#	142744
#	159614
#	174106
#
# Disc length: 2490 seconds
#
# Revision: 0
# Processed by: cddbd v1.5.2PL0 Copyright (c) Steve Scherf et al.
# Submitted via: dBpowerAMP V4.0
#
DISCID=8e09b80c
DTITLE=Black River Bluesman - Ants In My Kitchen
DYEAR=2005
DGENRE=General Blues
TTITLE0=Ain't No Good
TTITLE1=Ants In My Kitchen
TTITLE2=Day After Day
TTITLE3=Jump And Run
TTITLE4=Out In The Woods
TTITLE5=A Stone In My Shoe
TTITLE6=I Got The Message
TTITLE7=The Long Red Dirt Road
TTITLE8=By The End Of The Day
TTITLE9=Miss Captain Belle
TTITLE10=Tiger Leaping Gorge
TTITLE11=Cranberry Railroad
EXTD=
EXTT0=
EXTT1=
EXTT2=
EXTT3=
EXTT4=
EXTT5=
EXTT6=
EXTT7=
EXTT8=
EXTT9=
EXTT10=
EXTT11=
PLAYORDER=
